<svg width="77" height="21" viewBox="0 0 77 21" fill="none" xmlns="http://www.w3.org/2000/svg">
<path d="M10.7 16H8.62L3.96 9.18L2.6 10.46V16H0.82V1.72H2.6V8.76C2.96 8.30667 3.32667 7.85333 3.7 7.4C4.07333 6.94667 4.44667 6.49333 4.82 6.04L8.44 1.72H10.52L5.24 7.94L10.7 16ZM11.4392 11.42V9.86H16.0192V11.42H11.4392ZM28.8939 16H27.1139V9.34H20.3539V16H18.5739V1.72H20.3539V7.76H27.1139V1.72H28.8939V16ZM36.2383 5.08C37.1049 5.08 37.8516 5.28 38.4783 5.68C39.1049 6.08 39.5849 6.64667 39.9183 7.38C40.2649 8.1 40.4383 8.94667 40.4383 9.92V10.98H33.5583C33.5849 12.1933 33.8716 13.12 34.4183 13.76C34.9649 14.3867 35.7316 14.7 36.7183 14.7C37.3583 14.7 37.9249 14.64 38.4183 14.52C38.9249 14.3867 39.4449 14.2 39.9783 13.96V15.5C39.4583 15.74 38.9449 15.9133 38.4383 16.02C37.9449 16.14 37.3449 16.2 36.6383 16.2C35.6783 16.2 34.8316 15.9933 34.0983 15.58C33.3649 15.1667 32.7916 14.5533 32.3783 13.74C31.9649 12.9133 31.7583 11.9067 31.7583 10.72C31.7583 9.54667 31.9449 8.54 32.3183 7.7C32.6916 6.86 33.2116 6.21333 33.8783 5.76C34.5583 5.30667 35.3449 5.08 36.2383 5.08ZM36.2383 6.52C35.4649 6.52 34.8516 6.79333 34.3983 7.34C33.9449 7.87333 33.6783 8.62 33.5983 9.58H38.6383C38.6383 8.96667 38.5516 8.43333 38.3783 7.98C38.2049 7.52667 37.9383 7.17333 37.5783 6.92C37.2316 6.65333 36.7849 6.52 36.2383 6.52ZM44.7028 16H42.9628V0.799999H44.7028V16ZM52.7252 5.08C53.9652 5.08 54.9585 5.54 55.7052 6.46C56.4652 7.38 56.8452 8.76667 56.8452 10.62C56.8452 11.8333 56.6718 12.86 56.3252 13.7C55.9785 14.5267 55.4918 15.1533 54.8652 15.58C54.2518 15.9933 53.5318 16.2 52.7052 16.2C52.1852 16.2 51.7252 16.1267 51.3252 15.98C50.9385 15.8333 50.6052 15.6467 50.3252 15.42C50.0452 15.18 49.8052 14.92 49.6052 14.64H49.4852C49.5118 14.8667 49.5385 15.1533 49.5652 15.5C49.5918 15.8467 49.6052 16.1467 49.6052 16.4V20.8H47.8652V5.28H49.2852L49.5252 6.74H49.6052C49.8052 6.43333 50.0452 6.15333 50.3252 5.9C50.6052 5.64667 50.9385 5.44667 51.3252 5.3C51.7252 5.15333 52.1918 5.08 52.7252 5.08ZM52.3852 6.56C51.7185 6.56 51.1785 6.7 50.7652 6.98C50.3652 7.24667 50.0718 7.65333 49.8852 8.2C49.6985 8.74667 49.6052 9.44 49.6052 10.28V10.62C49.6052 11.5 49.6852 12.2467 49.8452 12.86C50.0185 13.4733 50.3118 13.94 50.7252 14.26C51.1385 14.58 51.7052 14.74 52.4252 14.74C53.0252 14.74 53.5185 14.56 53.9052 14.2C54.2918 13.84 54.5785 13.3533 54.7652 12.74C54.9518 12.1133 55.0452 11.4 55.0452 10.6C55.0452 9.37333 54.8252 8.39333 54.3852 7.66C53.9585 6.92667 53.2918 6.56 52.3852 6.56ZM63.3672 5.08C64.2339 5.08 64.9805 5.28 65.6072 5.68C66.2339 6.08 66.7139 6.64667 67.0472 7.38C67.3939 8.1 67.5672 8.94667 67.5672 9.92V10.98H60.6872C60.7139 12.1933 61.0005 13.12 61.5472 13.76C62.0939 14.3867 62.8605 14.7 63.8472 14.7C64.4872 14.7 65.0539 14.64 65.5472 14.52C66.0539 14.3867 66.5739 14.2 67.1072 13.96V15.5C66.5872 15.74 66.0739 15.9133 65.5672 16.02C65.0739 16.14 64.4739 16.2 63.7672 16.2C62.8072 16.2 61.9605 15.9933 61.2272 15.58C60.4939 15.1667 59.9205 14.5533 59.5072 13.74C59.0939 12.9133 58.8872 11.9067 58.8872 10.72C58.8872 9.54667 59.0739 8.54 59.4472 7.7C59.8205 6.86 60.3405 6.21333 61.0072 5.76C61.6872 5.30667 62.4739 5.08 63.3672 5.08ZM63.3672 6.52C62.5939 6.52 61.9805 6.79333 61.5272 7.34C61.0739 7.87333 60.8072 8.62 60.7272 9.58H65.7672C65.7672 8.96667 65.6805 8.43333 65.5072 7.98C65.3339 7.52667 65.0672 7.17333 64.7072 6.92C64.3605 6.65333 63.9139 6.52 63.3672 6.52ZM74.8717 5.08C75.0584 5.08 75.2584 5.09333 75.4717 5.12C75.6851 5.13333 75.8717 5.16 76.0317 5.2L75.8317 6.82C75.6717 6.78 75.4917 6.74667 75.2917 6.72C75.1051 6.69333 74.9251 6.68 74.7517 6.68C74.3651 6.68 73.9984 6.76667 73.6517 6.94C73.3051 7.11333 72.9917 7.36 72.7117 7.68C72.4451 7.98667 72.2317 8.36 72.0717 8.8C71.9117 9.24 71.8317 9.73333 71.8317 10.28V16H70.0917V5.28H71.5117L71.7117 7.24H71.7917C72.0051 6.84 72.2584 6.48 72.5517 6.16C72.8584 5.82667 73.2051 5.56667 73.5917 5.38C73.9784 5.18 74.4051 5.08 74.8717 5.08Z" fill="#030000"/>
</svg>
